<svg xmlns="http://www.w3.org/2000/svg" xmlns:xlink="http://www.w3.org/1999/xlink" width="500" zoomAndPan="magnify" viewBox="0 0 375 374.999991" height="500" preserveAspectRatio="xMidYMid meet" version="1.0"><defs><g/><clipPath id="a3d331186d"><path d="M 0.679688 0 L 192.199219 0 L 192.199219 71.519531 L 0.679688 71.519531 Z M 0.679688 0 " clip-rule="nonzero"/></clipPath><clipPath id="21f73b649a"><rect x="0" width="193" y="0" height="72"/></clipPath><clipPath id="32f27751df"><rect x="0" width="193" y="0" height="72"/></clipPath></defs><rect x="-37.5" width="450" fill="#ffffff" y="-37.499999" height="449.999989" fill-opacity="1"/><rect x="-37.5" width="450" fill="#000000" y="-37.499999" height="449.999989" fill-opacity="1"/><g transform="matrix(1, 0, 0, 1, 97, 132)"><g clip-path="url(#32f27751df)"><g clip-path="url(#a3d331186d)"><g><g clip-path="url(#21f73b649a)"><g fill="#ffffff" fill-opacity="1"><g transform="translate(0.78866, 58.670032)"><g><path d="M 39.484375 -44.296875 C 37.742188 -44.992188 36.566406 -44.472656 35.953125 -42.734375 L 25.015625 -14.59375 C 24.410156 -12.9375 24.972656 -11.765625 26.703125 -11.078125 C 28.441406 -10.460938 29.660156 -10.984375 30.359375 -12.640625 L 41.171875 -40.78125 C 41.867188 -42.519531 41.304688 -43.691406 39.484375 -44.296875 Z M 10.03125 -42.734375 C 9.425781 -44.472656 8.253906 -44.992188 6.515625 -44.296875 C 4.691406 -43.691406 4.128906 -42.519531 4.828125 -40.78125 L 20.0625 -2.46875 C 20.757812 -0.738281 21.976562 -0.21875 23.71875 -0.90625 C 25.445312 -1.519531 25.96875 -2.691406 25.28125 -4.421875 Z M 10.03125 -42.734375 "/></g></g></g><g fill="#ffffff" fill-opacity="1"><g transform="translate(44.953415, 58.670032)"><g><path d="M 17.203125 -39.078125 C 19.109375 -39.078125 20.0625 -40.078125 20.0625 -42.078125 C 20.0625 -43.898438 19.109375 -44.859375 17.203125 -44.953125 L 7.953125 -44.953125 C 6.035156 -44.859375 5.078125 -43.898438 5.078125 -42.078125 C 5.078125 -40.078125 6.078125 -39.078125 8.078125 -39.078125 L 9.640625 -39.078125 L 9.640625 -5.734375 L 7.953125 -5.734375 C 6.035156 -5.648438 5.078125 -4.648438 5.078125 -2.734375 C 5.078125 -0.828125 6.078125 0.125 8.078125 0.125 L 17.203125 0.125 C 19.109375 0.125 20.0625 -0.828125 20.0625 -2.734375 C 20.0625 -4.648438 19.109375 -5.648438 17.203125 -5.734375 L 15.5 -5.734375 L 15.5 -39.078125 Z M 17.203125 -39.078125 "/></g></g></g><g fill="#ffffff" fill-opacity="1"><g transform="translate(69.706522, 58.670032)"><g><path d="M 4.828125 -3 C 4.828125 -2.125 5.128906 -1.425781 5.734375 -0.90625 C 6.335938 -0.300781 7.035156 0 7.828125 0 C 8.171875 0 8.472656 -0.0390625 8.734375 -0.125 L 27.625 -0.125 C 28.40625 -0.125 29.097656 -0.429688 29.703125 -1.046875 C 30.316406 -1.566406 30.625 -2.257812 30.625 -3.125 C 30.625 -3.90625 30.316406 -4.601562 29.703125 -5.21875 C 29.097656 -5.738281 28.40625 -6 27.625 -6 L 10.8125 -6 L 10.8125 -19.40625 L 28.140625 -19.40625 C 28.921875 -19.40625 29.617188 -19.710938 30.234375 -20.328125 C 30.835938 -20.847656 31.140625 -21.539062 31.140625 -22.40625 C 31.140625 -23.1875 30.835938 -23.882812 30.234375 -24.5 C 29.617188 -25.101562 28.921875 -25.40625 28.140625 -25.40625 L 10.8125 -25.40625 L 10.8125 -39.21875 L 27.625 -39.21875 C 28.40625 -39.21875 29.097656 -39.476562 29.703125 -40 C 30.316406 -40.601562 30.625 -41.296875 30.625 -42.078125 C 30.625 -42.953125 30.316406 -43.648438 29.703125 -44.171875 C 29.097656 -44.773438 28.40625 -45.078125 27.625 -45.078125 L 7.828125 -45.078125 C 6.953125 -45.078125 6.253906 -44.773438 5.734375 -44.171875 C 5.128906 -43.648438 4.828125 -42.953125 4.828125 -42.078125 C 4.828125 -41.992188 4.828125 -41.863281 4.828125 -41.6875 Z M 4.828125 -3 "/></g></g></g><g fill="#ffffff" fill-opacity="1"><g transform="translate(104.621431, 58.670032)"><g><path d="M 26.1875 0 C 30.613281 0 34.695312 -1.300781 38.4375 -3.90625 C 39.300781 -4.519531 39.734375 -5.347656 39.734375 -6.390625 C 39.734375 -7.171875 39.472656 -7.863281 38.953125 -8.46875 C 38.347656 -9.070312 37.648438 -9.375 36.859375 -9.375 C 36.078125 -9.375 35.382812 -9.070312 34.78125 -8.46875 C 32.175781 -6.726562 29.3125 -5.859375 26.1875 -5.859375 C 24.007812 -5.859375 21.96875 -6.25 20.0625 -7.03125 C 18.144531 -7.90625 16.453125 -9.078125 14.984375 -10.546875 C 13.585938 -12.023438 12.457031 -13.675781 11.59375 -15.5 C 10.8125 -17.5 10.421875 -19.582031 10.421875 -21.75 C 10.421875 -23.925781 10.8125 -26.015625 11.59375 -28.015625 C 12.457031 -29.921875 13.585938 -31.613281 14.984375 -33.09375 C 16.453125 -34.476562 18.144531 -35.609375 20.0625 -36.484375 C 21.96875 -37.265625 24.007812 -37.65625 26.1875 -37.65625 C 28.613281 -37.65625 30.914062 -37.132812 33.09375 -36.09375 C 33.519531 -35.832031 33.992188 -35.703125 34.515625 -35.703125 C 35.296875 -35.703125 35.945312 -35.960938 36.46875 -36.484375 C 37.082031 -37.085938 37.390625 -37.78125 37.390625 -38.5625 C 37.390625 -39.257812 37.171875 -39.867188 36.734375 -40.390625 C 36.390625 -40.816406 35.910156 -41.160156 35.296875 -41.421875 C 32.429688 -42.816406 29.394531 -43.515625 26.1875 -43.515625 C 23.226562 -43.515625 20.445312 -42.945312 17.84375 -41.8125 C 15.238281 -40.6875 12.9375 -39.125 10.9375 -37.125 C 8.9375 -35.132812 7.414062 -32.832031 6.375 -30.21875 C 5.25 -27.53125 4.6875 -24.707031 4.6875 -21.75 C 4.6875 -18.800781 5.25 -15.976562 6.375 -13.28125 C 7.414062 -10.675781 8.9375 -8.378906 10.9375 -6.390625 C 12.9375 -4.390625 15.238281 -2.820312 17.84375 -1.6875 C 20.445312 -0.5625 23.226562 0 26.1875 0 Z M 26.1875 0 "/></g></g></g><g fill="#ffffff" fill-opacity="1"><g transform="translate(148.786186, 58.670032)"><g><path d="M 16.546875 -5.734375 C 14.640625 -5.734375 13.6875 -4.773438 13.6875 -2.859375 C 13.6875 -0.953125 14.640625 0 16.546875 0 L 35.171875 0 C 37.085938 0 38.046875 -0.953125 38.046875 -2.859375 C 38.046875 -4.773438 37.085938 -5.734375 35.171875 -5.734375 Z M 38.171875 -43.90625 C 37.566406 -44.601562 36.828125 -44.953125 35.953125 -44.953125 L 9.640625 -44.953125 C 7.734375 -44.953125 6.78125 -43.953125 6.78125 -41.953125 C 6.78125 -40.035156 7.734375 -39.078125 9.640625 -39.078125 L 29.578125 -39.078125 L 5.859375 -6 C 4.296875 -4.863281 4.082031 -3.515625 5.21875 -1.953125 C 6.34375 -0.390625 7.6875 -0.171875 9.25 -1.296875 L 37.78125 -39.609375 C 39.34375 -40.734375 39.5625 -42.078125 38.4375 -43.640625 Z M 38.171875 -43.90625 "/></g></g></g></g></g></g></g></g><g fill="#99e17a" fill-opacity="1"><g transform="translate(54.454836, 220.859721)"><g><path d="M 12.578125 -13.453125 C 12.554688 -13.648438 12.460938 -13.832031 12.296875 -14 L 12.078125 -14.15625 L 12 -14.203125 L 11.84375 -14.25 L 11.625 -14.25 L 11.59375 -14.203125 L 11.34375 -14.125 L 11.296875 -14.125 C 11.128906 -14.007812 11.019531 -13.859375 10.96875 -13.671875 L 10.921875 -13.671875 L 7.703125 -4.21875 L 4.46875 -13.671875 L 4.375 -13.828125 L 4.34375 -13.921875 L 4.171875 -14.078125 L 4.09375 -14.125 L 3.890625 -14.203125 L 3.796875 -14.25 L 3.546875 -14.25 L 3.4375 -14.203125 L 3.390625 -14.203125 L 3.3125 -14.125 L 3.140625 -14 L 3.0625 -13.921875 L 2.9375 -13.703125 L 2.9375 -13.625 L 2.84375 -13.453125 L 1.3125 -1.078125 C 1.257812 -0.441406 1.507812 -0.0820312 2.0625 0 C 2.582031 0.0820312 2.882812 -0.175781 2.96875 -0.78125 L 2.96875 -0.828125 L 4.09375 -9.609375 L 6.90625 -1.328125 C 7.039062 -0.910156 7.304688 -0.71875 7.703125 -0.75 C 8.085938 -0.71875 8.347656 -0.910156 8.484375 -1.328125 L 8.53125 -1.328125 L 11.34375 -9.609375 L 12.453125 -0.828125 L 12.453125 -0.78125 C 12.535156 -0.175781 12.84375 0.0820312 13.375 0 C 13.925781 -0.0820312 14.171875 -0.441406 14.109375 -1.078125 Z M 12.578125 -13.453125 "/></g></g></g><g fill="#99e17a" fill-opacity="1"><g transform="translate(69.898796, 220.859721)"><g><path d="M 15.265625 -7.59375 C 15.265625 -6.019531 15 -4.648438 14.46875 -3.484375 C 13.9375 -2.316406 13.148438 -1.40625 12.109375 -0.75 C 11.078125 -0.101562 9.804688 0.21875 8.296875 0.21875 C 6.722656 0.21875 5.414062 -0.101562 4.375 -0.75 C 3.332031 -1.40625 2.554688 -2.320312 2.046875 -3.5 C 1.546875 -4.675781 1.296875 -6.046875 1.296875 -7.609375 C 1.296875 -9.148438 1.546875 -10.503906 2.046875 -11.671875 C 2.554688 -12.835938 3.332031 -13.742188 4.375 -14.390625 C 5.414062 -15.046875 6.726562 -15.375 8.3125 -15.375 C 9.820312 -15.375 11.09375 -15.050781 12.125 -14.40625 C 13.15625 -13.757812 13.9375 -12.851562 14.46875 -11.6875 C 15 -10.519531 15.265625 -9.15625 15.265625 -7.59375 Z M 3.3125 -7.59375 C 3.3125 -5.6875 3.710938 -4.179688 4.515625 -3.078125 C 5.316406 -1.984375 6.578125 -1.4375 8.296875 -1.4375 C 10.003906 -1.4375 11.253906 -1.984375 12.046875 -3.078125 C 12.847656 -4.179688 13.25 -5.6875 13.25 -7.59375 C 13.25 -9.5 12.851562 -10.992188 12.0625 -12.078125 C 11.269531 -13.160156 10.019531 -13.703125 8.3125 -13.703125 C 6.582031 -13.703125 5.316406 -13.160156 4.515625 -12.078125 C 3.710938 -10.992188 3.3125 -9.5 3.3125 -7.59375 Z M 8.28125 3.734375 C 7.988281 3.734375 7.734375 3.632812 7.515625 3.4375 C 7.296875 3.238281 7.1875 2.941406 7.1875 2.546875 C 7.1875 2.128906 7.296875 1.828125 7.515625 1.640625 C 7.734375 1.453125 7.988281 1.359375 8.28125 1.359375 C 8.582031 1.359375 8.84375 1.453125 9.0625 1.640625 C 9.28125 1.828125 9.390625 2.128906 9.390625 2.546875 C 9.390625 2.941406 9.28125 3.238281 9.0625 3.4375 C 8.84375 3.632812 8.582031 3.734375 8.28125 3.734375 Z M 9.265625 -20.015625 C 9.441406 -19.710938 9.6875 -19.363281 10 -18.96875 C 10.320312 -18.582031 10.65625 -18.203125 11 -17.828125 C 11.34375 -17.453125 11.648438 -17.128906 11.921875 -16.859375 L 11.921875 -16.625 L 10.609375 -16.625 C 10.242188 -16.851562 9.863281 -17.132812 9.46875 -17.46875 C 9.070312 -17.800781 8.679688 -18.15625 8.296875 -18.53125 C 7.910156 -18.15625 7.523438 -17.800781 7.140625 -17.46875 C 6.765625 -17.132812 6.394531 -16.851562 6.03125 -16.625 L 4.75 -16.625 L 4.75 -16.859375 C 5.007812 -17.128906 5.304688 -17.453125 5.640625 -17.828125 C 5.984375 -18.203125 6.3125 -18.582031 6.625 -18.96875 C 6.9375 -19.363281 7.179688 -19.710938 7.359375 -20.015625 Z M 9.265625 -20.015625 "/></g></g></g><g fill="#99e17a" fill-opacity="1"><g transform="translate(86.455432, 220.859721)"><g><path d="M 11.59375 -14.25 L 1.703125 -14.25 C 1.066406 -14.21875 0.75 -13.910156 0.75 -13.328125 C 0.75 -12.691406 1.082031 -12.375 1.75 -12.375 L 5.84375 -12.375 L 5.84375 -0.90625 C 5.84375 -0.269531 6.175781 0.046875 6.84375 0.046875 C 7.476562 0.046875 7.796875 -0.257812 7.796875 -0.875 L 7.828125 -0.875 L 7.828125 -12.375 L 11.5625 -12.375 C 12.21875 -12.375 12.546875 -12.691406 12.546875 -13.328125 C 12.546875 -13.910156 12.226562 -14.21875 11.59375 -14.25 Z M 11.59375 -14.25 "/></g></g></g><g fill="#99e17a" fill-opacity="1"><g transform="translate(99.622134, 220.859721)"><g/></g></g><g fill="#99e17a" fill-opacity="1"><g transform="translate(105.791437, 220.859721)"><g><path d="M 1.484375 0 L 5.703125 0 C 6.585938 0 7.445312 -0.191406 8.28125 -0.578125 C 9.050781 -0.941406 9.738281 -1.441406 10.34375 -2.078125 C 10.945312 -2.734375 11.414062 -3.488281 11.75 -4.34375 C 12.082031 -5.226562 12.25 -6.15625 12.25 -7.125 C 12.25 -8.09375 12.082031 -9.003906 11.75 -9.859375 C 11.414062 -10.710938 10.945312 -11.472656 10.34375 -12.140625 C 9.769531 -12.796875 9.082031 -13.304688 8.28125 -13.671875 C 7.476562 -14.023438 6.648438 -14.21875 5.796875 -14.25 C 5.546875 -14.25 5.335938 -14.148438 5.171875 -13.953125 C 5.003906 -13.765625 4.921875 -13.546875 4.921875 -13.296875 C 4.921875 -13.015625 5.003906 -12.78125 5.171875 -12.59375 C 5.335938 -12.425781 5.546875 -12.34375 5.796875 -12.34375 L 5.828125 -12.34375 C 6.460938 -12.3125 7.070312 -12.160156 7.65625 -11.890625 C 8.207031 -11.609375 8.703125 -11.234375 9.140625 -10.765625 C 9.554688 -10.296875 9.890625 -9.742188 10.140625 -9.109375 C 10.390625 -8.472656 10.515625 -7.8125 10.515625 -7.125 C 10.515625 -6.40625 10.390625 -5.726562 10.140625 -5.09375 C 9.890625 -4.457031 9.546875 -3.90625 9.109375 -3.4375 C 8.660156 -2.9375 8.148438 -2.5625 7.578125 -2.3125 C 6.992188 -2.039062 6.367188 -1.90625 5.703125 -1.90625 L 3.21875 -1.90625 L 3.21875 -13.328125 C 3.21875 -13.578125 3.125 -13.800781 2.9375 -14 C 2.769531 -14.164062 2.578125 -14.25 2.359375 -14.25 C 2.128906 -14.25 1.9375 -14.164062 1.78125 -14 C 1.613281 -13.800781 1.515625 -13.578125 1.484375 -13.328125 Z M 1.484375 0 "/></g></g></g><g fill="#99e17a" fill-opacity="1"><g transform="translate(119.330781, 220.859721)"><g><path d="M 6.3125 0 L 0.84375 0 L 0.84375 -1.109375 L 2.625 -1.5 L 2.625 -13.609375 L 0.84375 -14.03125 L 0.84375 -15.140625 L 6.3125 -15.140625 L 6.3125 -14.03125 L 4.53125 -13.609375 L 4.53125 -1.5 L 6.3125 -1.109375 Z M 3.5625 3.734375 C 3.269531 3.734375 3.015625 3.632812 2.796875 3.4375 C 2.578125 3.238281 2.46875 2.941406 2.46875 2.546875 C 2.46875 2.128906 2.578125 1.828125 2.796875 1.640625 C 3.015625 1.453125 3.269531 1.359375 3.5625 1.359375 C 3.863281 1.359375 4.125 1.453125 4.34375 1.640625 C 4.5625 1.828125 4.671875 2.128906 4.671875 2.546875 C 4.671875 2.941406 4.5625 3.238281 4.34375 3.4375 C 4.125 3.632812 3.863281 3.734375 3.5625 3.734375 Z M 3.5625 3.734375 "/></g></g></g><g fill="#99e17a" fill-opacity="1"><g transform="translate(126.517339, 220.859721)"><g><path d="M 8.3125 0 C 9.71875 0 11.015625 -0.414062 12.203125 -1.25 C 12.484375 -1.4375 12.625 -1.695312 12.625 -2.03125 C 12.625 -2.28125 12.539062 -2.5 12.375 -2.6875 C 12.1875 -2.882812 11.96875 -2.984375 11.71875 -2.984375 C 11.46875 -2.984375 11.242188 -2.882812 11.046875 -2.6875 C 10.222656 -2.132812 9.3125 -1.859375 8.3125 -1.859375 C 7.625 -1.859375 6.976562 -1.984375 6.375 -2.234375 C 5.757812 -2.515625 5.21875 -2.890625 4.75 -3.359375 C 4.3125 -3.828125 3.953125 -4.347656 3.671875 -4.921875 C 3.429688 -5.554688 3.3125 -6.222656 3.3125 -6.921875 C 3.3125 -7.609375 3.429688 -8.269531 3.671875 -8.90625 C 3.953125 -9.507812 4.3125 -10.046875 4.75 -10.515625 C 5.21875 -10.960938 5.757812 -11.320312 6.375 -11.59375 C 6.976562 -11.84375 7.625 -11.96875 8.3125 -11.96875 C 9.09375 -11.96875 9.828125 -11.800781 10.515625 -11.46875 C 10.648438 -11.382812 10.800781 -11.34375 10.96875 -11.34375 C 11.21875 -11.34375 11.425781 -11.425781 11.59375 -11.59375 C 11.78125 -11.789062 11.875 -12.015625 11.875 -12.265625 C 11.875 -12.484375 11.804688 -12.675781 11.671875 -12.84375 C 11.554688 -12.976562 11.40625 -13.085938 11.21875 -13.171875 C 10.300781 -13.609375 9.332031 -13.828125 8.3125 -13.828125 C 7.375 -13.828125 6.492188 -13.648438 5.671875 -13.296875 C 4.835938 -12.929688 4.101562 -12.429688 3.46875 -11.796875 C 2.832031 -11.160156 2.347656 -10.429688 2.015625 -9.609375 C 1.660156 -8.753906 1.484375 -7.859375 1.484375 -6.921875 C 1.484375 -5.984375 1.660156 -5.082031 2.015625 -4.21875 C 2.347656 -3.394531 2.832031 -2.664062 3.46875 -2.03125 C 4.101562 -1.394531 4.835938 -0.894531 5.671875 -0.53125 C 6.492188 -0.175781 7.375 0 8.3125 0 Z M 8.3125 0 "/></g></g></g><g fill="#99e17a" fill-opacity="1"><g transform="translate(140.553539, 220.859721)"><g><path d="M 12.09375 -13.296875 C 12.0625 -13.898438 11.753906 -14.203125 11.171875 -14.203125 C 10.535156 -14.203125 10.21875 -13.882812 10.21875 -13.25 L 10.21875 -8.703125 L 3.59375 -8.703125 L 3.59375 -13.296875 C 3.570312 -13.898438 3.253906 -14.203125 2.640625 -14.203125 C 2.035156 -14.203125 1.734375 -13.882812 1.734375 -13.25 L 1.734375 -0.90625 C 1.734375 -0.300781 2.035156 0 2.640625 0 C 3.253906 0 3.570312 -0.300781 3.59375 -0.90625 L 3.59375 -6.828125 L 10.21875 -6.828125 L 10.21875 -0.90625 C 10.21875 -0.300781 10.535156 0 11.171875 0 C 11.753906 0 12.0625 -0.300781 12.09375 -0.90625 Z M 12.09375 -13.296875 "/></g></g></g><g fill="#99e17a" fill-opacity="1"><g transform="translate(154.092883, 220.859721)"><g/></g></g><g fill="#99e17a" fill-opacity="1"><g transform="translate(160.262187, 220.859721)"><g><path d="M 12.546875 -14.078125 C 11.992188 -14.296875 11.625 -14.128906 11.4375 -13.578125 L 7.953125 -4.640625 C 7.765625 -4.109375 7.945312 -3.734375 8.5 -3.515625 C 9.050781 -3.328125 9.4375 -3.492188 9.65625 -4.015625 L 13.09375 -12.96875 C 13.3125 -13.519531 13.128906 -13.890625 12.546875 -14.078125 Z M 3.1875 -13.578125 C 3 -14.128906 2.628906 -14.296875 2.078125 -14.078125 C 1.492188 -13.890625 1.3125 -13.519531 1.53125 -12.96875 L 6.375 -0.78125 C 6.601562 -0.226562 6.992188 -0.0664062 7.546875 -0.296875 C 8.097656 -0.484375 8.257812 -0.851562 8.03125 -1.40625 Z M 3.1875 -13.578125 "/></g></g></g><g fill="#99e17a" fill-opacity="1"><g transform="translate(174.298387, 220.859721)"><g><path d="M 13.5625 -15.140625 L 13.5625 -5.34375 C 13.5625 -4.300781 13.347656 -3.359375 12.921875 -2.515625 C 12.503906 -1.671875 11.859375 -1.003906 10.984375 -0.515625 C 10.109375 -0.0234375 9.003906 0.21875 7.671875 0.21875 C 5.773438 0.21875 4.335938 -0.289062 3.359375 -1.3125 C 2.390625 -2.34375 1.90625 -3.703125 1.90625 -5.390625 L 1.90625 -15.140625 L 3.8125 -15.140625 L 3.8125 -5.328125 C 3.8125 -4.097656 4.140625 -3.140625 4.796875 -2.453125 C 5.453125 -1.773438 6.445312 -1.4375 7.78125 -1.4375 C 9.15625 -1.4375 10.148438 -1.800781 10.765625 -2.53125 C 11.378906 -3.257812 11.6875 -4.195312 11.6875 -5.34375 L 11.6875 -15.140625 Z M 7.6875 3.734375 C 7.394531 3.734375 7.140625 3.632812 6.921875 3.4375 C 6.703125 3.238281 6.59375 2.941406 6.59375 2.546875 C 6.59375 2.128906 6.703125 1.828125 6.921875 1.640625 C 7.140625 1.453125 7.394531 1.359375 7.6875 1.359375 C 7.988281 1.359375 8.25 1.453125 8.46875 1.640625 C 8.6875 1.828125 8.796875 2.128906 8.796875 2.546875 C 8.796875 2.941406 8.6875 3.238281 8.46875 3.4375 C 8.25 3.632812 7.988281 3.734375 7.6875 3.734375 Z M 7.6875 3.734375 "/></g></g></g><g fill="#99e17a" fill-opacity="1"><g transform="translate(189.795057, 220.859721)"><g/></g></g><g fill="#99e17a" fill-opacity="1"><g transform="translate(195.96436, 220.859721)"><g><path d="M 8.3125 0 C 9.71875 0 11.015625 -0.414062 12.203125 -1.25 C 12.484375 -1.4375 12.625 -1.695312 12.625 -2.03125 C 12.625 -2.28125 12.539062 -2.5 12.375 -2.6875 C 12.1875 -2.882812 11.96875 -2.984375 11.71875 -2.984375 C 11.46875 -2.984375 11.242188 -2.882812 11.046875 -2.6875 C 10.222656 -2.132812 9.3125 -1.859375 8.3125 -1.859375 C 7.625 -1.859375 6.976562 -1.984375 6.375 -2.234375 C 5.757812 -2.515625 5.21875 -2.890625 4.75 -3.359375 C 4.3125 -3.828125 3.953125 -4.347656 3.671875 -4.921875 C 3.429688 -5.554688 3.3125 -6.222656 3.3125 -6.921875 C 3.3125 -7.609375 3.429688 -8.269531 3.671875 -8.90625 C 3.953125 -9.507812 4.3125 -10.046875 4.75 -10.515625 C 5.21875 -10.960938 5.757812 -11.320312 6.375 -11.59375 C 6.976562 -11.84375 7.625 -11.96875 8.3125 -11.96875 C 9.09375 -11.96875 9.828125 -11.800781 10.515625 -11.46875 C 10.648438 -11.382812 10.800781 -11.34375 10.96875 -11.34375 C 11.21875 -11.34375 11.425781 -11.425781 11.59375 -11.59375 C 11.78125 -11.789062 11.875 -12.015625 11.875 -12.265625 C 11.875 -12.484375 11.804688 -12.675781 11.671875 -12.84375 C 11.554688 -12.976562 11.40625 -13.085938 11.21875 -13.171875 C 10.300781 -13.609375 9.332031 -13.828125 8.3125 -13.828125 C 7.375 -13.828125 6.492188 -13.648438 5.671875 -13.296875 C 4.835938 -12.929688 4.101562 -12.429688 3.46875 -11.796875 C 2.832031 -11.160156 2.347656 -10.429688 2.015625 -9.609375 C 1.660156 -8.753906 1.484375 -7.859375 1.484375 -6.921875 C 1.484375 -5.984375 1.660156 -5.082031 2.015625 -4.21875 C 2.347656 -3.394531 2.832031 -2.664062 3.46875 -2.03125 C 4.101562 -1.394531 4.835938 -0.894531 5.671875 -0.53125 C 6.492188 -0.175781 7.375 0 8.3125 0 Z M 8.3125 0 "/></g></g></g><g fill="#99e17a" fill-opacity="1"><g transform="translate(210.00056, 220.859721)"><g><path d="M 12.09375 -13.296875 C 12.0625 -13.898438 11.753906 -14.203125 11.171875 -14.203125 C 10.535156 -14.203125 10.21875 -13.882812 10.21875 -13.25 L 10.21875 -8.703125 L 3.59375 -8.703125 L 3.59375 -13.296875 C 3.570312 -13.898438 3.253906 -14.203125 2.640625 -14.203125 C 2.035156 -14.203125 1.734375 -13.882812 1.734375 -13.25 L 1.734375 -0.90625 C 1.734375 -0.300781 2.035156 0 2.640625 0 C 3.253906 0 3.570312 -0.300781 3.59375 -0.90625 L 3.59375 -6.828125 L 10.21875 -6.828125 L 10.21875 -0.90625 C 10.21875 -0.300781 10.535156 0 11.171875 0 C 11.753906 0 12.0625 -0.300781 12.09375 -0.90625 Z M 12.09375 -13.296875 "/></g></g></g><g fill="#99e17a" fill-opacity="1"><g transform="translate(223.539905, 220.859721)"><g><path d="M 7.953125 -1.953125 C 6.566406 -1.953125 5.390625 -2.445312 4.421875 -3.4375 C 3.460938 -4.457031 2.984375 -5.6875 2.984375 -7.125 C 2.984375 -8.5625 3.460938 -9.773438 4.421875 -10.765625 C 5.390625 -11.785156 6.566406 -12.296875 7.953125 -12.296875 C 9.304688 -12.296875 10.460938 -11.785156 11.421875 -10.765625 C 12.390625 -9.773438 12.875 -8.5625 12.875 -7.125 C 12.875 -5.6875 12.390625 -4.457031 11.421875 -3.4375 C 10.460938 -2.445312 9.304688 -1.953125 7.953125 -1.953125 Z M 7.953125 -14.203125 C 6.066406 -14.203125 4.460938 -13.515625 3.140625 -12.140625 C 1.816406 -10.753906 1.15625 -9.082031 1.15625 -7.125 C 1.15625 -5.164062 1.816406 -3.492188 3.140625 -2.109375 C 4.460938 -0.734375 6.066406 -0.046875 7.953125 -0.046875 C 9.796875 -0.046875 11.378906 -0.734375 12.703125 -2.109375 C 14.035156 -3.492188 14.703125 -5.164062 14.703125 -7.125 C 14.703125 -9.082031 14.035156 -10.753906 12.703125 -12.140625 C 11.378906 -13.515625 9.796875 -14.203125 7.953125 -14.203125 Z M 7.953125 -14.203125 "/></g></g></g><g fill="#99e17a" fill-opacity="1"><g transform="translate(239.190889, 220.859721)"><g/></g></g><g fill="#99e17a" fill-opacity="1"><g transform="translate(245.360193, 220.859721)"><g><path d="M 10.28125 -12.46875 C 10.882812 -12.46875 11.1875 -12.785156 11.1875 -13.421875 C 11.1875 -14.023438 10.882812 -14.328125 10.28125 -14.328125 L 5.890625 -14.328125 C 4.890625 -14.359375 4.003906 -14 3.234375 -13.25 C 2.328125 -12.425781 1.898438 -11.335938 1.953125 -9.984375 C 2.003906 -8.515625 2.597656 -7.460938 3.734375 -6.828125 C 4.148438 -6.609375 4.632812 -6.445312 5.1875 -6.34375 C 5.570312 -6.257812 5.984375 -6.21875 6.421875 -6.21875 L 7.796875 -6.171875 L 8.078125 -6.125 C 8.378906 -6.101562 8.640625 -6.019531 8.859375 -5.875 C 9.578125 -5.519531 9.910156 -4.84375 9.859375 -3.84375 C 9.804688 -2.550781 8.785156 -1.890625 6.796875 -1.859375 L 3.9375 -1.859375 C 3.332031 -1.859375 3.03125 -1.554688 3.03125 -0.953125 C 3.03125 -0.316406 3.332031 0 3.9375 0 L 7.421875 0 C 7.910156 0 8.347656 -0.0234375 8.734375 -0.078125 C 9.285156 -0.160156 9.757812 -0.328125 10.15625 -0.578125 C 11.195312 -1.160156 11.75 -2.222656 11.8125 -3.765625 C 11.863281 -5.117188 11.460938 -6.195312 10.609375 -7 C 9.859375 -7.6875 8.921875 -8.03125 7.796875 -8.03125 L 6.75 -8.03125 C 4.90625 -8.0625 3.953125 -8.753906 3.890625 -10.109375 C 3.835938 -10.878906 4.03125 -11.5 4.46875 -11.96875 C 4.800781 -12.300781 5.160156 -12.46875 5.546875 -12.46875 Z M 10.28125 -12.46875 "/></g></g></g><g fill="#99e17a" fill-opacity="1"><g transform="translate(257.905823, 220.859721)"><g><path d="M 5.46875 -12.421875 C 6.070312 -12.421875 6.375 -12.738281 6.375 -13.375 C 6.375 -13.957031 6.070312 -14.257812 5.46875 -14.28125 L 2.53125 -14.28125 C 1.925781 -14.257812 1.625 -13.957031 1.625 -13.375 C 1.625 -12.738281 1.941406 -12.421875 2.578125 -12.421875 L 3.0625 -12.421875 L 3.0625 -1.828125 L 2.53125 -1.828125 C 1.925781 -1.796875 1.625 -1.476562 1.625 -0.875 C 1.625 -0.257812 1.941406 0.046875 2.578125 0.046875 L 5.46875 0.046875 C 6.070312 0.046875 6.375 -0.257812 6.375 -0.875 C 6.375 -1.476562 6.070312 -1.796875 5.46875 -1.828125 L 4.9375 -1.828125 L 4.9375 -12.421875 Z M 5.46875 -12.421875 "/></g></g></g><g fill="#99e17a" fill-opacity="1"><g transform="translate(265.77272, 220.859721)"><g><path d="M 12.46875 -14.15625 C 11.863281 -14.15625 11.5625 -13.851562 11.5625 -13.25 L 11.5625 -5.421875 C 11.5625 -4.816406 11.863281 -4.515625 12.46875 -4.515625 C 13.070312 -4.515625 13.375 -4.816406 13.375 -5.421875 L 13.375 -13.25 C 13.375 -13.851562 13.070312 -14.15625 12.46875 -14.15625 Z M 3.109375 -13.75 C 2.753906 -14.25 2.34375 -14.316406 1.875 -13.953125 L 1.75 -13.875 C 1.550781 -13.707031 1.453125 -13.484375 1.453125 -13.203125 L 1.453125 -1.25 C 1.453125 -0.632812 1.753906 -0.328125 2.359375 -0.328125 C 2.972656 -0.328125 3.28125 -0.632812 3.28125 -1.25 L 3.28125 -10.640625 L 11.46875 -0.421875 C 11.832031 0.078125 12.265625 0.148438 12.765625 -0.203125 C 13.253906 -0.566406 13.320312 -0.992188 12.96875 -1.484375 Z M 3.109375 -13.75 "/></g></g></g><g fill="#99e17a" fill-opacity="1"><g transform="translate(280.512801, 220.859721)"><g><path d="M 12.09375 -13.296875 C 12.0625 -13.898438 11.753906 -14.203125 11.171875 -14.203125 C 10.535156 -14.203125 10.21875 -13.882812 10.21875 -13.25 L 10.21875 -8.703125 L 3.59375 -8.703125 L 3.59375 -13.296875 C 3.570312 -13.898438 3.253906 -14.203125 2.640625 -14.203125 C 2.035156 -14.203125 1.734375 -13.882812 1.734375 -13.25 L 1.734375 -0.90625 C 1.734375 -0.300781 2.035156 0 2.640625 0 C 3.253906 0 3.570312 -0.300781 3.59375 -0.90625 L 3.59375 -6.828125 L 10.21875 -6.828125 L 10.21875 -0.90625 C 10.21875 -0.300781 10.535156 0 11.171875 0 C 11.753906 0 12.0625 -0.300781 12.09375 -0.90625 Z M 12.09375 -13.296875 "/></g></g></g><g fill="#99e17a" fill-opacity="1"><g transform="translate(294.052145, 220.859721)"><g/></g></g><g fill="#99e17a" fill-opacity="1"><g transform="translate(300.221449, 220.859721)"><g><path d="M 12.546875 -14.078125 C 11.992188 -14.296875 11.625 -14.128906 11.4375 -13.578125 L 7.953125 -4.640625 C 7.765625 -4.109375 7.945312 -3.734375 8.5 -3.515625 C 9.050781 -3.328125 9.4375 -3.492188 9.65625 -4.015625 L 13.09375 -12.96875 C 13.3125 -13.519531 13.128906 -13.890625 12.546875 -14.078125 Z M 3.1875 -13.578125 C 3 -14.128906 2.628906 -14.296875 2.078125 -14.078125 C 1.492188 -13.890625 1.3125 -13.519531 1.53125 -12.96875 L 6.375 -0.78125 C 6.601562 -0.226562 6.992188 -0.0664062 7.546875 -0.296875 C 8.097656 -0.484375 8.257812 -0.851562 8.03125 -1.40625 Z M 3.1875 -13.578125 "/></g></g></g><g fill="#99e17a" fill-opacity="1"><g transform="translate(314.257649, 220.859721)"><g><path d="M 5.46875 -12.421875 C 6.070312 -12.421875 6.375 -12.738281 6.375 -13.375 C 6.375 -13.957031 6.070312 -14.257812 5.46875 -14.28125 L 2.53125 -14.28125 C 1.925781 -14.257812 1.625 -13.957031 1.625 -13.375 C 1.625 -12.738281 1.941406 -12.421875 2.578125 -12.421875 L 3.0625 -12.421875 L 3.0625 -1.828125 L 2.53125 -1.828125 C 1.925781 -1.796875 1.625 -1.476562 1.625 -0.875 C 1.625 -0.257812 1.941406 0.046875 2.578125 0.046875 L 5.46875 0.046875 C 6.070312 0.046875 6.375 -0.257812 6.375 -0.875 C 6.375 -1.476562 6.070312 -1.796875 5.46875 -1.828125 L 4.9375 -1.828125 L 4.9375 -12.421875 Z M 5.46875 -12.421875 "/></g></g></g><g fill="#99e17a" fill-opacity="1"><g transform="translate(322.124545, 220.859721)"><g><path d="M 10.515625 0 L 2.0625 0 L 2.0625 -15.140625 L 10.515625 -15.140625 L 10.515625 -13.46875 L 3.96875 -13.46875 L 3.96875 -8.734375 L 10.140625 -8.734375 L 10.140625 -7.078125 L 3.96875 -7.078125 L 3.96875 -1.671875 L 10.515625 -1.671875 Z M 7.4375 -20.015625 C 7.613281 -19.710938 7.859375 -19.363281 8.171875 -18.96875 C 8.492188 -18.582031 8.828125 -18.203125 9.171875 -17.828125 C 9.515625 -17.453125 9.820312 -17.128906 10.09375 -16.859375 L 10.09375 -16.625 L 8.78125 -16.625 C 8.414062 -16.851562 8.035156 -17.132812 7.640625 -17.46875 C 7.242188 -17.800781 6.851562 -18.15625 6.46875 -18.53125 C 6.082031 -18.15625 5.695312 -17.800781 5.3125 -17.46875 C 4.9375 -17.132812 4.566406 -16.851562 4.203125 -16.625 L 2.921875 -16.625 L 2.921875 -16.859375 C 3.179688 -17.128906 3.476562 -17.453125 3.8125 -17.828125 C 4.15625 -18.203125 4.484375 -18.582031 4.796875 -18.96875 C 5.109375 -19.363281 5.351562 -19.710938 5.53125 -20.015625 Z M 7.4375 -20.015625 "/></g></g></g><g fill="#99e17a" fill-opacity="1"><g transform="translate(333.911342, 220.859721)"><g><path d="M 12.46875 -14.15625 C 11.863281 -14.15625 11.5625 -13.851562 11.5625 -13.25 L 11.5625 -5.421875 C 11.5625 -4.816406 11.863281 -4.515625 12.46875 -4.515625 C 13.070312 -4.515625 13.375 -4.816406 13.375 -5.421875 L 13.375 -13.25 C 13.375 -13.851562 13.070312 -14.15625 12.46875 -14.15625 Z M 3.109375 -13.75 C 2.753906 -14.25 2.34375 -14.316406 1.875 -13.953125 L 1.75 -13.875 C 1.550781 -13.707031 1.453125 -13.484375 1.453125 -13.203125 L 1.453125 -1.25 C 1.453125 -0.632812 1.753906 -0.328125 2.359375 -0.328125 C 2.972656 -0.328125 3.28125 -0.632812 3.28125 -1.25 L 3.28125 -10.640625 L 11.46875 -0.421875 C 11.832031 0.078125 12.265625 0.148438 12.765625 -0.203125 C 13.253906 -0.566406 13.320312 -0.992188 12.96875 -1.484375 Z M 3.109375 -13.75 "/></g></g></g></svg>